<?xml version="1.0" encoding="utf-8"?>
<!-- Generator: Adobe Illustrator 19.0.0, SVG Export Plug-In . SVG Version: 6.00 Build 0)  -->
<svg version="1.1" id="icons" xmlns="http://www.w3.org/2000/svg" xmlns:xlink="http://www.w3.org/1999/xlink" x="0px" y="0px"
	 viewBox="0 0 44 41" style="enable-background:new 0 0 44 41;" xml:space="preserve">
<style type="text/css">
	.st0{fill:#FFFFFF;}
</style>
<g>
	<g>
		<path class="st0" d="M35.4,34.2C35.4,34.2,35.4,34.2,35.4,34.2H8.6c-0.3,0-0.6-0.2-0.8-0.4c-0.2-0.3-0.2-0.6-0.1-0.9
			c0.2-0.5,4.9-12.6,14.3-12.6c8.9,0,13.6,10.8,14.2,12.5c0.1,0.2,0.2,0.3,0.2,0.5C36.4,33.7,35.9,34.2,35.4,34.2z M10.1,32.2h23.7
			c-1.4-3-5.5-10-11.8-10C15.6,22.2,11.6,29.2,10.1,32.2z"/>
	</g>
	<g>
		<path class="st0" d="M33.1,24.1h-5.3c-0.6,0-1-0.4-1-1s0.4-1,1-1h3.6c-1.9-3.4-5.7-9-9.4-9h-0.2c-3.7,0-7.5,5.6-9.4,9h3.6
			c0.6,0,1,0.4,1,1s-0.4,1-1,1h-5.3c-0.3,0-0.7-0.2-0.8-0.5c-0.2-0.3-0.2-0.7-0.1-1c0.2-0.5,5.5-11.6,11.9-11.6h0.2
			c6.4,0,11.7,11.1,11.9,11.6c0.1,0.3,0.1,0.7-0.1,1S33.5,24.1,33.1,24.1z"/>
	</g>
	<g>
		<path class="st0" d="M29.2,14h-4c-0.6,0-1-0.4-1-1s0.4-1,1-1h2L22,4.6L16.7,12h2c0.6,0,1,0.4,1,1s-0.4,1-1,1h-4
			c-0.4,0-0.7-0.2-0.9-0.5c-0.2-0.3-0.1-0.7,0.1-1l7.2-10.1c0.4-0.5,1.2-0.5,1.6,0l7.2,10.1c0.2,0.3,0.2,0.7,0.1,1
			C30,13.8,29.6,14,29.2,14z"/>
	</g>
	<g>
		<path class="st0" d="M22,39.1c-0.6,0-1-0.4-1-1v-4.9c0-0.6,0.4-1,1-1c0.6,0,1,0.4,1,1v4.9C23,38.6,22.5,39.1,22,39.1z"/>
	</g>
	<g>
		<path class="st0" d="M25.5,39.1h-7c-0.6,0-1-0.4-1-1c0-0.6,0.4-1,1-1h7c0.6,0,1,0.4,1,1C26.5,38.6,26,39.1,25.5,39.1z"/>
	</g>
</g>
</svg>
