<?xml version="1.0" encoding="utf-8"?>
<!-- Generator: Adobe Illustrator 19.0.0, SVG Export Plug-In . SVG Version: 6.00 Build 0)  -->
<svg version="1.1" id="icons" xmlns="http://www.w3.org/2000/svg" xmlns:xlink="http://www.w3.org/1999/xlink" x="0px" y="0px"
	 viewBox="0 0 24 36.3" style="enable-background:new 0 0 24 36.3;" xml:space="preserve">
<style type="text/css">
	.st0{fill:#FFFFFF;}
</style>
<g>
	<g>
		<path class="st0" d="M17.4,35.8L17.4,35.8c-1.1,0-2.1-0.5-2.8-1.4L3.2,18.5c0,0,0-0.1-0.1-0.1c0,0,0-0.1-0.1-0.1
			C-0.2,13.1,1,6.3,6,2.7c2-1.4,4.3-2.2,6.7-2.2c3.7,0,7.2,1.8,9.4,4.8c0.5,0.7,0.7,1.6,0.6,2.5c-0.1,0.9-0.6,1.7-1.4,2.2
			c-0.6,0.4-1.3,0.6-2,0.6c-1.1,0-2.1-0.5-2.8-1.4c-0.9-1.2-2.3-1.9-3.8-1.9c-1,0-1.9,0.3-2.7,0.9C7.9,9.7,7.4,12.7,9,14.8
			l11.2,15.6c1.1,1.5,0.8,3.7-0.8,4.8C18.8,35.6,18.1,35.8,17.4,35.8z M4.9,17.4l11.4,15.8c0.3,0.4,0.7,0.6,1.2,0.6l0,0
			c0.3,0,0.6-0.1,0.8-0.3c0.6-0.5,0.8-1.3,0.3-2L7.3,16c-2.2-3-1.5-7.2,1.5-9.3c1.1-0.8,2.5-1.3,3.9-1.3c2.2,0,4.2,1,5.4,2.8
			c0.4,0.6,1.4,0.8,2,0.3c0.3-0.2,0.5-0.5,0.6-0.9c0.1-0.4,0-0.8-0.2-1.1c-1.8-2.5-4.7-4-7.7-4c-2,0-3.9,0.6-5.6,1.8
			c-4.1,3-5.2,8.6-2.4,12.9C4.8,17.3,4.9,17.4,4.9,17.4z"/>
	</g>
	<g>
		<path class="st0" d="M19.1,31.6c-0.1,0-0.1,0-0.2,0l-6.8-1.1c-0.5-0.1-0.9-0.6-0.8-1.1c0.1-0.5,0.6-0.9,1.1-0.8l6.8,1.1
			c0.5,0.1,0.9,0.6,0.8,1.1C20,31.3,19.6,31.6,19.1,31.6z"/>
	</g>
	<g>
		<path class="st0" d="M14.4,25.1c-0.1,0-0.1,0-0.2,0L7.5,24c-0.5-0.1-0.9-0.6-0.8-1.1c0.1-0.5,0.6-0.9,1.1-0.8l6.7,1.1
			c0.5,0.1,0.9,0.6,0.8,1.1C15.3,24.7,14.9,25.1,14.4,25.1z"/>
	</g>
	<g>
		<path class="st0" d="M9.7,18.6c-0.1,0-0.1,0-0.2,0l-6.5-1c-0.5-0.1-0.9-0.6-0.8-1.1c0.1-0.5,0.6-0.9,1.1-0.8l6.5,1
			c0.5,0.1,0.9,0.6,0.8,1.1C10.6,18.2,10.2,18.6,9.7,18.6z"/>
	</g>
	<g>
		<path class="st0" d="M7.1,13c-0.1,0-0.3,0-0.4-0.1L2,10.7c-0.5-0.2-0.7-0.8-0.5-1.3c0.2-0.5,0.8-0.7,1.3-0.5l4.6,2.2
			C8,11.4,8.2,12,8,12.5C7.8,12.8,7.4,13,7.1,13z"/>
	</g>
	<g>
		<path class="st0" d="M9.2,8.6c-0.3,0-0.5-0.1-0.7-0.3L5.1,4.8c-0.4-0.4-0.4-1,0-1.4c0.4-0.4,1-0.4,1.4,0L9.9,7
			c0.4,0.4,0.4,1,0,1.4C9.6,8.6,9.4,8.6,9.2,8.6z"/>
	</g>
	<g>
		<path class="st0" d="M13.4,7.4c-0.4,0-0.8-0.3-1-0.7l-1.5-4.8c-0.2-0.5,0.1-1.1,0.6-1.3c0.5-0.2,1.1,0.1,1.3,0.6l1.5,4.8
			c0.2,0.5-0.1,1.1-0.6,1.3C13.6,7.4,13.5,7.4,13.4,7.4z"/>
	</g>
	<g>
		<path class="st0" d="M17.1,9.3c-0.1,0-0.3,0-0.4-0.1C16.2,9,16,8.5,16.2,8l2-4.7c0.2-0.5,0.8-0.7,1.3-0.5C20,2.9,20.3,3.5,20,4
			l-2,4.7C17.9,9.1,17.5,9.3,17.1,9.3z"/>
	</g>
</g>
</svg>
