<?xml version="1.0" encoding="utf-8"?>
<!-- Generator: Adobe Illustrator 19.0.0, SVG Export Plug-In . SVG Version: 6.00 Build 0)  -->
<svg version="1.1" id="icons" xmlns="http://www.w3.org/2000/svg" xmlns:xlink="http://www.w3.org/1999/xlink" x="0px" y="0px"
	 viewBox="0 0 44 41" style="enable-background:new 0 0 44 41;" xml:space="preserve">
<style type="text/css">
	.st0{fill:#FFFFFF;}
</style>
<g>
	<g>
		<path class="st0" d="M10.6,39c-0.2,0-0.4-0.1-0.6-0.2c-0.3-0.2-0.5-0.6-0.4-0.9l1.5-12L2.9,17c-0.2-0.3-0.3-0.6-0.2-1
			c0.1-0.3,0.4-0.6,0.8-0.7l11.9-2.3l5.8-10.6c0.4-0.6,1.4-0.6,1.8,0l5.8,10.6l11.9,2.3c0.4,0.1,0.7,0.3,0.8,0.7
			c0.1,0.3,0,0.7-0.2,1l-8.3,8.8l1.5,12c0,0.4-0.1,0.7-0.4,0.9c-0.3,0.2-0.7,0.3-1,0.1L22,33.7l-10.9,5.1C10.9,38.9,10.8,39,10.6,39
			z M22,31.6c0.1,0,0.3,0,0.4,0.1l9.7,4.6l-1.3-10.6c0-0.3,0.1-0.6,0.3-0.8l7.3-7.8l-10.5-2c-0.3-0.1-0.5-0.2-0.7-0.5L22,5.1
			l-5.2,9.4c-0.1,0.3-0.4,0.4-0.7,0.5L5.6,17l7.4,7.8c0.2,0.2,0.3,0.5,0.3,0.8l-1.4,10.6l9.7-4.6C21.7,31.6,21.9,31.6,22,31.6z"/>
	</g>
	<g>
		<path class="st0" d="M28.5,32.2c-0.1,0-0.3,0-0.4-0.1l-6-2.8l-6,2.8c-0.3,0.2-0.7,0.1-1-0.1c-0.3-0.2-0.5-0.6-0.4-0.9l0.8-6.6
			l-4.6-4.9c-0.2-0.3-0.3-0.6-0.2-1c0.1-0.3,0.4-0.6,0.8-0.7l6.6-1.2l3.2-5.9c0.4-0.6,1.4-0.6,1.8,0l3.2,5.9l6.6,1.2
			c0.4,0.1,0.7,0.3,0.8,0.7c0.1,0.3,0,0.7-0.2,1l-4.6,4.9l0.8,6.4c0,0.1,0.1,0.2,0.1,0.3C29.5,31.8,29,32.2,28.5,32.2
			C28.5,32.2,28.5,32.2,28.5,32.2z M22,27.2c0.1,0,0.3,0,0.4,0.1l4.8,2.3l-0.7-5.3c0-0.3,0.1-0.6,0.3-0.8l3.7-3.9l-5.2-1
			c-0.3-0.1-0.5-0.2-0.7-0.5L22,13.4l-2.6,4.7c-0.1,0.3-0.4,0.4-0.7,0.5l-5.2,1l3.7,3.9c0.2,0.2,0.3,0.5,0.3,0.8l-0.7,5.3l4.8-2.3
			C21.7,27.2,21.9,27.2,22,27.2z"/>
	</g>
</g>
</svg>
