<?xml version="1.0" encoding="utf-8"?>
<!-- Generator: Adobe Illustrator 19.0.0, SVG Export Plug-In . SVG Version: 6.00 Build 0)  -->
<svg version="1.1" id="icons" xmlns="http://www.w3.org/2000/svg" xmlns:xlink="http://www.w3.org/1999/xlink" x="0px" y="0px"
	 viewBox="0 0 33.4 39.4" style="enable-background:new 0 0 33.4 39.4;" xml:space="preserve">
<style type="text/css">
	.st0{fill:#FFFFFF;}
</style>
<g>
	<g>
		<g>
			<path class="st0" d="M16.7,11.1c-2,0-3.6-1.6-3.6-3.6c0-2,1.6-3.6,3.6-3.6s3.6,1.6,3.6,3.6C20.3,9.5,18.6,11.1,16.7,11.1z
				 M16.7,5.9c-0.9,0-1.6,0.7-1.6,1.6c0,0.9,0.7,1.6,1.6,1.6s1.6-0.7,1.6-1.6C18.3,6.7,17.5,5.9,16.7,5.9z"/>
		</g>
		<g>
			<path class="st0" d="M10.4,13.8c-0.3,0-0.7,0-1-0.2c-1-0.3-1.8-1.1-2.1-2.2C7,10.3,6.9,8.7,6.9,7.5c0-1.2,0.1-2.7,0.4-3.9
				c0.3-1.1,1-1.9,2.1-2.2c1.1-0.3,2.5-0.1,3.3,0.7c1.1,0.9,2.9,2.7,2.9,2.8c0.4,0.4,0.4,1,0,1.4c-0.4,0.4-1,0.4-1.4,0
				c0,0-1.8-1.8-2.8-2.7C11,3.3,10.4,3.2,10,3.3C9.6,3.4,9.4,3.7,9.2,4.1c-0.2,0.8-0.3,2-0.3,3.4c0,1.4,0.1,2.7,0.3,3.4
				c0.1,0.4,0.3,0.7,0.7,0.8c0.5,0.1,1.1,0,1.4-0.3c1-0.9,2.8-2.7,2.8-2.7c0.4-0.4,1-0.4,1.4,0c0.4,0.4,0.4,1,0,1.4
				c-0.1,0.1-1.9,1.9-2.9,2.8C12.1,13.5,11.2,13.8,10.4,13.8z"/>
		</g>
		<g>
			<path class="st0" d="M23,13.8c-0.8,0-1.7-0.3-2.3-0.8c-1.1-0.9-2.9-2.7-2.9-2.8c-0.4-0.4-0.4-1,0-1.4c0.4-0.4,1-0.4,1.4,0
				c0,0,1.8,1.8,2.8,2.7c0.3,0.3,0.9,0.4,1.4,0.3c0.4-0.1,0.6-0.4,0.7-0.8c0.2-0.8,0.3-2,0.3-3.4c0-1.4-0.1-2.7-0.3-3.4
				c-0.1-0.4-0.3-0.7-0.7-0.8c-0.5-0.1-1.1,0-1.4,0.3c-1,0.9-2.8,2.7-2.8,2.7c-0.4,0.4-1,0.4-1.4,0c-0.4-0.4-0.4-1,0-1.4
				c0.1-0.1,1.9-1.9,2.9-2.8c0.9-0.8,2.2-1,3.3-0.7c1,0.3,1.8,1.1,2.1,2.2c0.3,1.1,0.4,2.8,0.4,3.9c0,1.2-0.1,2.8-0.4,3.9
				c-0.3,1.1-1,1.9-2,2.2C23.7,13.8,23.4,13.8,23,13.8z"/>
		</g>
		<g>
			<path class="st0" d="M14.1,8.5h-2.2c-0.6,0-1-0.4-1-1c0-0.6,0.4-1,1-1h2.2c0.6,0,1,0.4,1,1C15.1,8.1,14.6,8.5,14.1,8.5z"/>
		</g>
		<g>
			<path class="st0" d="M21.5,8.5h-2.2c-0.6,0-1-0.4-1-1c0-0.6,0.4-1,1-1h2.2c0.6,0,1,0.4,1,1C22.5,8.1,22,8.5,21.5,8.5z"/>
		</g>
	</g>
	<g>
		<path class="st0" d="M2.2,32.4c-0.1,0-0.3,0-0.4-0.1c-0.4-0.2-0.6-0.6-0.6-1.1c0.5-3,2.9-4.7,3.1-4.9c0.2-0.1,0.3-0.3,0.4-0.5
			c1.6-10.1,5.5-14,8.5-15.4c0,0,0.1,0,0.1-0.1c0.3-0.1,1.4-0.6,3.3-0.6c2,0,3,0.4,3.3,0.6c0,0,0.1,0,0.1,0.1
			c3,1.5,6.8,5.3,8.5,15.4c0,0.2,0.2,0.4,0.3,0.5c0.1,0.1,2.6,1.8,3.1,4.9c0.1,0.4-0.2,0.9-0.6,1.1c-0.4,0.2-0.9,0.1-1.2-0.3
			c-0.7-0.9-2.8-1.3-4.2-1.6c-2.5-0.4-5.9-0.7-9.4-0.7S9.8,30,7.2,30.4C5.8,30.7,3.8,31.1,3,32C2.8,32.3,2.5,32.4,2.2,32.4z
			 M16.7,27.8c3.7,0,7.1,0.3,9.8,0.7c0.8,0.1,1.6,0.3,2.4,0.6c-0.5-0.6-1.1-1-1.1-1c-0.6-0.4-1.1-1.1-1.2-1.9
			c-1.5-9.3-4.8-12.7-7.4-14c-0.1,0-0.1-0.1-0.2-0.1c-0.2-0.1-1-0.4-2.4-0.4c-1.6,0-2.3,0.3-2.5,0.4c0,0-0.1,0-0.1,0.1
			c-2.6,1.3-5.9,4.7-7.4,14c-0.1,0.8-0.6,1.4-1.2,1.9c0,0-0.5,0.4-1,1c0.8-0.2,1.6-0.4,2.4-0.6C9.5,28,13,27.8,16.7,27.8z"/>
	</g>
	<g>
		<path class="st0" d="M13.3,34.8C13.3,34.8,13.3,34.8,13.3,34.8c-0.5,0-1-0.1-1.6-0.1c-1.7-0.1-3.8-0.2-4.8-0.4
			c-2-0.4-4.3-0.9-5.4-2.3c-0.4-0.4-0.3-1.1,0.1-1.4C2,30.3,2.7,30.3,3,30.8c0.7,0.9,2.8,1.3,4.2,1.6c0.9,0.2,3,0.3,4.6,0.4
			c0.6,0,1.1,0.1,1.5,0.1c0.6,0,1,0.5,0.9,1.1C14.3,34.4,13.8,34.8,13.3,34.8z M20.1,34.8c-0.5,0-1-0.4-1-0.9c0-0.6,0.4-1,0.9-1.1
			c0.4,0,1-0.1,1.6-0.1c1.5-0.1,3.6-0.2,4.5-0.4c1.5-0.3,3.5-0.7,4.2-1.6c0.4-0.4,1-0.5,1.4-0.1c0.4,0.4,0.5,1,0.1,1.4
			c-1.1,1.4-3.4,1.9-5.4,2.3c-0.9,0.2-3,0.3-4.7,0.4C21.2,34.8,20.6,34.8,20.1,34.8C20.2,34.8,20.1,34.8,20.1,34.8z"/>
	</g>
	<g>
		<path class="st0" d="M16.7,38.1c-2.3,0-4.2-1.9-4.2-4.2c0-2.1,1.4-3.1,4.2-3.1c2.8,0,4.2,1.1,4.2,3.1C20.9,36.3,19,38.1,16.7,38.1
			z M16.7,32.8c-2.2,0-2.2,0.7-2.2,1.1c0,1.2,1,2.2,2.2,2.2c1.2,0,2.2-1,2.2-2.2C18.9,33.5,18.9,32.8,16.7,32.8z"/>
	</g>
</g>
</svg>
